<?xml version="1.0" encoding="UTF-8" standalone="no"?>
<!-- Created with Inkscape (http://www.inkscape.org/) -->

<svg
   width="123.02611mm"
   height="202.99774mm"
   viewBox="0 0 123.02611 202.99774"
   version="1.1"
   id="svg1"
   xmlns="http://www.w3.org/2000/svg"
   xmlns:svg="http://www.w3.org/2000/svg">
  <defs
     id="defs1" />
  <g
     id="layer1"
     transform="translate(-25.495706,-34.858883)">
    <path
       style="fill:#000000;stroke-width:0.264583"
       d="M 42.261582,139.07737 66.701324,76.988399 Z"
       id="path3" />
    <path
       style="fill:#000000;stroke-width:0.264583"
       d="M 98.491545,117.30624 49.591984,184.7742 Z"
       id="path4" />
    <path
       style="fill:#000000;stroke-width:0.264583"
       d="M 34.657197,155.79314 74.555107,73.98681"
       id="path5" />
    <path
       style="fill:#000000;stroke-width:0.264583"
       d="M 41.196356,147.40871 94.426304,67.813969"
       id="path10" />
    <path
       style="fill:#000000;stroke-width:0.264583"
       d="M 25.495706,237.19797 108.78385,117.03663 v 0 l -0.39225,0.57216"
       id="path12" />
    <path
       style="fill:#000000;stroke-width:0.264583"
       d="M 57.181239,102.37898 93.538833,34.858883 v 0"
       id="path13" />
    <path
       style="fill:#1a1a1a;stroke-width:0.264583"
       d="M 111.715,99.978211 28.874079,237.85664"
       id="path14" />
    <path
       style="fill:#1a1a1a;stroke:#000000;stroke-width:5.165;stroke-dasharray:none"
       d="m 73.155621,109.50417 c 4.398721,13.88496 6.514425,20.38626 13.626708,43.04734 v 0 0"
       id="path16" />
    <path
       style="fill:#1a1a1a;stroke:#000000;stroke-width:5.165;stroke-dasharray:none"
       d="m 79.815463,132.06866 24.466367,-49.447351 -0.006,0.04994"
       id="path17" />
    <path
       style="fill:#1a1a1a;stroke:#000000;stroke-width:5.165;stroke-dasharray:none"
       d="m 103.81884,80.806866 c 7.83393,18.06357 10.80066,24.738664 42.32959,98.244924"
       id="path18" />
    <path
       style="fill:#000000;stroke:#000000;stroke-width:5.165;stroke-dasharray:none"
       d="m 73.459433,110.83395 -27.046637,73.23386 v 0"
       id="path19" />
    <path
       style="fill:#000000;stroke:#000000;stroke-width:1.665;stroke-dasharray:none"
       d="M 27.908538,83.699352 Z"
       id="path20" />
  </g>
</svg>
