<?xml version="1.0" standalone="no"?>
<!DOCTYPE svg PUBLIC "-//W3C//DTD SVG 20010904//EN"
 "http://www.w3.org/TR/2001/REC-SVG-20010904/DTD/svg10.dtd">
<svg version="1.0" xmlns="http://www.w3.org/2000/svg"
 width="25.000000pt" height="25.000000pt" viewBox="0 0 25.000000 25.000000"
 preserveAspectRatio="xMidYMid meet">
<metadata>
Created by potrace 1.16, written by Peter Selinger 2001-2019
</metadata>
<g transform="translate(0.000000,25.000000) scale(0.100000,-0.100000)"
fill="#000000" stroke="none">
<path d="M75 229 c-13 -5 5 -8 49 -8 38 -1 67 2 64 5 -10 9 -91 12 -113 3z"/>
<path d="M105 172 c-5 -15 -14 -22 -29 -21 -11 1 -33 1 -48 1 -27 -2 -28 -4
-28 -58 0 -74 12 -94 55 -94 32 0 35 3 41 38 4 20 12 43 18 51 9 11 8 13 -4 9
-8 -2 -19 -23 -24 -46 -7 -34 -13 -42 -30 -42 -34 0 -46 20 -46 72 l0 48 115
0 115 0 0 -48 c0 -52 -12 -72 -46 -72 -17 0 -23 8 -30 42 -5 23 -16 44 -24 46
-12 4 -13 2 -4 -9 6 -8 14 -31 18 -51 6 -35 9 -38 41 -38 43 0 55 20 55 94 0
54 -1 56 -27 58 -16 0 -38 0 -49 -1 -14 -1 -24 6 -29 21 l-8 23 -5 -25 -5 -25
-8 25 -7 25 -7 -23z"/>
</g>
</svg>
