<?xml version="1.0" standalone="no"?>
<!DOCTYPE svg PUBLIC "-//W3C//DTD SVG 20010904//EN"
 "http://www.w3.org/TR/2001/REC-SVG-20010904/DTD/svg10.dtd">
<svg version="1.0" xmlns="http://www.w3.org/2000/svg"
 width="32.000000pt" height="32.000000pt" viewBox="0 0 32.000000 32.000000"
 preserveAspectRatio="xMidYMid meet">
<metadata>
Created by potrace 1.16, written by Peter Selinger 2001-2019
</metadata>
<g transform="translate(0.000000,32.000000) scale(0.100000,-0.100000)"
fill="#000000" stroke="none">
<path d="M118 253 l-37 -37 -25 23 c-43 41 -56 24 -56 -76 0 -133 1 -133 160
-133 159 0 160 0 160 133 0 100 -13 117 -56 76 l-24 -23 -38 37 c-21 20 -40
37 -43 37 -2 0 -21 -17 -41 -37z m84 -30 l38 -37 25 24 25 23 0 -81 c0 -100
-3 -102 -130 -102 -127 0 -130 2 -130 102 l0 81 25 -23 26 -24 37 37 c20 20
39 37 41 37 3 0 22 -17 43 -37z"/>
</g>
</svg>
