<?xml version="1.0" standalone="no"?>
<!DOCTYPE svg PUBLIC "-//W3C//DTD SVG 20010904//EN"
 "http://www.w3.org/TR/2001/REC-SVG-20010904/DTD/svg10.dtd">
<svg version="1.0" xmlns="http://www.w3.org/2000/svg"
 width="26.000000pt" height="26.000000pt" viewBox="0 0 26.000000 26.000000"
 preserveAspectRatio="xMidYMid meet">
<metadata>
Created by potrace 1.16, written by Peter Selinger 2001-2019
</metadata>
<g transform="translate(0.000000,26.000000) scale(0.100000,-0.100000)"
fill="#000000" stroke="none">
<path d="M90 205 c-22 -23 -25 -24 -41 -9 -35 32 -49 11 -49 -70 0 -97 10
-106 130 -106 120 0 130 9 130 106 0 81 -14 102 -49 70 -16 -15 -19 -14 -41 9
-13 14 -31 25 -40 25 -9 0 -27 -11 -40 -25z m75 -25 c28 -27 33 -29 45 -15 7
8 16 15 21 15 14 0 11 -114 -3 -128 -16 -16 -180 -16 -196 0 -12 12 -17 128
-5 128 3 0 14 -7 23 -15 15 -13 19 -12 45 15 16 17 31 30 34 30 3 0 19 -14 36
-30z"/>
</g>
</svg>
