<?xml version="1.0" standalone="no"?>
<!DOCTYPE svg PUBLIC "-//W3C//DTD SVG 20010904//EN"
 "http://www.w3.org/TR/2001/REC-SVG-20010904/DTD/svg10.dtd">
<svg version="1.0" xmlns="http://www.w3.org/2000/svg"
 width="25.000000pt" height="32.000000pt" viewBox="0 0 25.000000 32.000000"
 preserveAspectRatio="xMidYMid meet">
<metadata>
Created by potrace 1.16, written by Peter Selinger 2001-2019
</metadata>
<g transform="translate(0.000000,32.000000) scale(0.100000,-0.100000)"
fill="#000000" stroke="none">
<path d="M123 271 c-10 -17 -26 -31 -35 -31 -11 0 -24 -19 -38 -56 -11 -31
-19 -61 -18 -66 2 -5 12 14 22 43 l19 52 18 -24 19 -24 0 23 c0 28 26 92 37
92 5 0 26 -38 47 -85 21 -47 41 -84 43 -82 7 7 -73 181 -85 185 -7 2 -20 -10
-29 -27z"/>
</g>
</svg>
