<?xml version="1.0" standalone="no"?>
<!DOCTYPE svg PUBLIC "-//W3C//DTD SVG 20010904//EN"
 "http://www.w3.org/TR/2001/REC-SVG-20010904/DTD/svg10.dtd">
<svg version="1.0" xmlns="http://www.w3.org/2000/svg"
 width="416.000000pt" height="524.000000pt" viewBox="0 0 416.000000 524.000000"
 preserveAspectRatio="xMidYMid meet">
<metadata>
Created by potrace 1.16, written by Peter Selinger 2001-2019
</metadata>
<g transform="translate(0.000000,524.000000) scale(0.100000,-0.100000)"
fill="#000000" stroke="none">
<path d="M2463 5192 c-46 -20 -83 -42 -83 -50 0 -14 -766 -1570 -780 -1585 -7
-8 -27 52 -153 448 -22 72 -41 131 -42 132 0 1 -41 -11 -89 -26 l-89 -29 -503
-1362 c-277 -750 -506 -1370 -509 -1379 -4 -13 14 -23 85 -48 82 -29 90 -31
98 -15 5 9 213 571 463 1248 250 678 457 1227 461 1220 4 -6 97 -297 207 -645
110 -349 203 -636 205 -639 5 -5 157 36 175 48 6 3 -41 167 -110 384 l-119
378 402 814 c221 447 406 810 409 806 9 -9 255 -576 941 -2172 297 -690 543
-1259 548 -1264 13 -13 176 58 172 75 -5 24 -980 2291 -1500 3488 -48 113 -92
206 -98 207 -5 1 -46 -14 -91 -34z"/>
</g>
</svg>
